{"glyphs":{"0":{"ha":2356,"x_min":32,"x_max":2295,"o":"m 1124 1630 l 1282 1630 q 2295 269 1361 1567 l 2295 111 q 1029 -649 2133 -28 l 871 -649 q 32 459 90 307 l 32 554 q 222 775 32 629 q 1124 1630 276 845 m 317 490 l 981 -364 l 1013 -364 l 1994 222 q 1187 1314 1337 1147 q 317 490 848 1021 z "},"1":{"ha":1014,"x_min":-114,"x_max":978,"o":"m 677 1678 l 804 1678 q 852 1630 827 1678 l 852 1614 q 566 -364 836 1345 l 598 -380 l 772 -380 q 978 -427 978 -380 l 978 -602 l 915 -617 q -114 -538 -114 -590 l -114 -380 q -82 -349 -109 -349 l 139 -349 l 329 -364 q 566 1266 566 1206 l 298 1044 l 139 1044 q 108 1076 108 1044 l 108 1219 q 677 1678 594 1678 z "},"2":{"ha":2066,"x_min":127,"x_max":1994,"o":"m 1883 1662 q 1915 1630 1915 1657 l 1915 1519 q 1583 1044 1915 1453 q 507 -364 609 -214 l 522 -364 q 1978 -349 1777 -349 l 1994 -380 l 1994 -554 q 1963 -570 1963 -554 q 159 -602 823 -602 l 127 -554 l 127 -412 l 1472 1345 l 301 1044 l 174 1044 q 142 1076 142 1044 l 142 1266 l 1757 1662 l 1883 1662 z "},"3":{"ha":2091,"x_min":29,"x_max":1912,"o":"m 1849 1583 l 1881 1535 l 1881 1393 q 805 522 1876 1376 l 1912 -269 l 1912 -427 q 1881 -459 1912 -459 l 1849 -459 q 29 -237 29 -304 l 29 -63 l 140 -47 l 1311 -174 l 472 427 l 472 602 q 1358 1297 1320 1291 l 1358 1314 l 1327 1314 q 298 1250 496 1250 l 267 1250 q 235 1282 235 1250 l 235 1424 q 900 1519 235 1478 q 1849 1583 1652 1583 z "},"4":{"ha":2052,"x_min":-139,"x_max":2251,"o":"m 1127 1709 l 1301 1709 q 1349 1614 1349 1693 l 1349 1567 q 1159 507 1349 1471 l 2156 570 q 2251 475 2251 570 l 2251 395 q 1539 300 2251 316 q 1112 269 1461 285 q 905 -681 949 -681 l 732 -681 l 715 -602 l 858 253 q -76 190 75 190 q -139 237 -139 214 l -139 348 q 225 760 -139 439 q 1127 1709 317 880 m 288 443 q 922 522 922 469 l 1048 1234 q 288 443 762 948 z "},"5":{"ha":2029,"x_min":129,"x_max":2044,"o":"m 1664 1741 l 1807 1741 q 1838 1709 1838 1736 l 1838 1519 l 414 1155 l 366 475 q 2044 205 1830 253 l 2044 0 q 414 -665 477 -665 l 366 -665 l 287 -649 l 287 -491 q 873 -222 287 -439 q 1490 47 894 -197 l 1490 63 q 144 300 144 259 l 129 364 q 224 1361 176 1361 q 1664 1741 751 1488 z "},"6":{"ha":1790,"x_min":6,"x_max":1874,"o":"m 1162 1773 l 1320 1773 q 1352 1741 1352 1767 l 1352 1583 q 481 949 1211 1442 l 481 918 q 1874 538 1485 665 l 1874 412 q 1367 -142 1874 319 q 845 -681 1358 -192 l 734 -681 q 576 -459 630 -681 q 6 760 6 690 l 6 918 q 1162 1773 1118 1729 m 307 712 l 307 696 q 782 -332 782 -295 l 813 -332 l 1510 380 l 1510 395 l 307 712 z "},"7":{"ha":1850,"x_min":151,"x_max":1908,"o":"m 1782 1741 l 1876 1741 q 1908 1709 1908 1736 l 1908 1583 q 1227 443 1908 1521 q 515 -696 690 -442 l 373 -696 q 341 -665 341 -696 l 341 -491 l 1544 1456 l 1544 1472 q 278 1266 336 1266 l 183 1266 q 151 1297 151 1266 l 151 1440 q 705 1567 151 1503 q 1782 1741 1599 1741 z "},"8":{"ha":2134,"x_min":109,"x_max":2007,"o":"m 1090 1836 l 1185 1836 q 1929 1329 1252 1836 q 2007 1282 1980 1282 l 2007 1060 q 1343 443 1971 1060 q 1865 -47 1858 -16 l 1865 -222 q 1122 -760 1803 -300 l 979 -760 q 109 -507 109 -534 l 109 -380 q 283 -174 109 -307 l 916 427 l 916 443 l 235 1060 l 235 1234 q 1090 1836 1017 1836 m 1122 1567 q 551 1124 555 1143 q 1122 633 699 1008 l 1137 633 q 1691 1155 1691 1141 q 1122 1567 1177 1567 m 473 -364 q 995 -507 937 -507 l 1027 -507 q 1565 -111 1565 -132 l 1137 253 q 473 -364 903 51 z "},"9":{"ha":1675,"x_min":121,"x_max":1704,"o":"m 1546 1788 l 1672 1788 q 1704 1756 1704 1784 l 1704 1646 q 850 -554 1609 1317 q 770 -712 806 -712 l 628 -712 q 596 -681 596 -712 l 596 -554 q 928 348 596 -507 l 928 364 q 121 1139 894 364 l 121 1329 q 1546 1788 1493 1788 m 469 1187 l 469 1171 q 1055 633 1001 633 l 1055 649 q 1372 1472 1372 1442 l 1356 1472 q 469 1187 498 1187 z "},"\u0000":{"ha":0,"x_min":0,"x_max":0,"o":""}," ":{"ha":1111,"x_min":0,"x_max":0,"o":""}," ":{"ha":1111,"x_min":0,"x_max":0,"o":""},"!":{"ha":1213,"x_min":-161,"x_max":1058,"o":"m 900 1741 q 931 1709 931 1736 l 931 1551 q 646 570 889 1551 q 504 95 631 545 l 330 95 q 298 127 298 95 l 298 190 q 710 1741 298 326 l 900 1741 m 868 127 l 1058 127 l 1058 -79 q 29 -649 988 -101 l -129 -649 q -161 -617 -161 -649 l -161 -459 q 868 127 -110 -418 z "},"\"":{"ha":1071,"x_min":36,"x_max":859,"o":"m 669 1756 l 764 1756 l 843 1741 q 859 1503 859 1583 l 859 1155 q 843 918 859 1076 l 764 902 l 669 902 q 621 997 621 918 l 621 1662 q 669 1756 631 1756 m 68 1725 l 241 1725 q 400 997 400 1088 l 400 870 q 368 839 400 839 l 226 839 q 36 1598 174 839 l 36 1693 q 68 1725 41 1725 z "},"#":{"ha":2653,"x_min":61,"x_max":2641,"o":"m 1992 1836 q 2024 1804 2024 1831 l 2024 1788 q 1944 981 2024 1569 q 2498 886 2498 949 q 2466 728 2489 728 q 2419 712 2436 712 q 1912 744 2344 712 q 1881 443 1912 698 q 2546 507 1986 459 l 2641 490 l 2641 317 q 1849 205 2641 269 q 1739 -522 1786 -522 l 1580 -522 q 1549 -475 1549 -522 q 1612 190 1549 -330 q 805 95 827 123 q 568 -649 611 -649 l 425 -649 q 393 -617 393 -649 l 393 -475 q 551 95 393 -429 l 536 95 q 93 63 372 63 l 61 111 l 61 253 q 109 300 61 276 q 631 332 340 300 q 773 839 646 433 q 172 918 172 870 l 172 1092 q 235 1107 180 1092 q 837 1076 772 1076 l 1058 1788 q 1122 1804 1086 1804 l 1232 1804 q 1264 1773 1264 1799 l 1264 1630 l 1090 1044 l 1707 997 q 1834 1836 1790 1767 l 1992 1836 m 1027 823 q 900 364 900 413 q 1644 443 1644 408 q 1675 760 1675 667 q 1628 775 1645 775 q 1027 823 1459 775 z "},"$":{"ha":2079,"x_min":95,"x_max":1931,"o":"m 1013 1851 l 1156 1851 q 1203 1756 1187 1851 q 1187 1393 1187 1544 l 1187 1361 l 1203 1361 q 1725 1614 1541 1510 l 1899 1614 q 1931 1583 1931 1609 l 1931 1440 q 1171 1060 1931 1397 l 1156 981 q 1139 585 1156 847 q 1899 332 1864 372 l 1899 174 q 1108 -222 1899 136 l 1092 -254 q 1029 -696 1092 -696 l 886 -696 q 854 -665 854 -696 l 854 -349 q 269 -617 310 -617 l 95 -617 l 95 -444 q 871 -63 304 -303 q 902 395 886 269 q 95 665 277 585 l 95 823 q 744 1139 101 867 q 949 1266 949 1240 q 1013 1851 949 1851 m 570 791 l 570 760 q 918 665 880 665 l 918 934 l 902 934 q 570 791 603 791 m 1124 332 l 1124 300 q 1108 63 1124 221 q 1440 237 1440 205 q 1124 332 1402 237 z "},"%":{"ha":2291,"x_min":11,"x_max":2179,"o":"m 1894 1598 l 2037 1598 q 2068 1567 2068 1594 l 2068 1409 l 216 -459 l 43 -459 q 11 -427 11 -459 l 11 -317 q 233 -63 11 -245 q 1894 1598 1224 947 m 787 1456 l 960 1456 q 992 1424 992 1451 l 992 1329 q 787 1139 992 1240 q 296 791 787 1128 l 121 791 q 90 823 90 791 l 90 918 q 359 1155 90 1013 l 787 1456 m 1989 427 l 2179 427 l 2179 253 q 1388 -285 1467 -285 l 1261 -285 q 1230 -254 1230 -285 l 1230 -111 q 1989 427 1356 5 z "},"&":{"ha":2354,"x_min":56,"x_max":2193,"o":"m 1480 1773 q 2193 1171 1945 1403 l 2193 1013 q 1243 332 2174 978 l 1243 317 q 1607 47 1321 270 l 1655 47 q 2003 412 1655 90 l 2193 412 l 2193 237 l 1845 -142 q 2193 -444 2193 -380 l 2193 -554 q 2161 -586 2193 -586 l 1987 -586 l 1655 -332 l 1243 -728 l 1101 -728 q 56 -380 1043 -728 l 56 -190 l 768 332 q 231 760 724 396 l 231 965 l 1307 1773 l 1480 1773 m 563 854 q 1022 507 896 572 q 1860 1107 1765 1013 q 1402 1503 1402 1493 q 563 854 719 1010 m 452 -237 l 452 -254 q 1133 -475 1090 -475 l 1417 -174 l 1417 -159 q 1006 158 1392 -111 q 452 -237 524 -166 z "},"'":{"ha":511,"x_min":-12,"x_max":368,"o":"m -12 1836 l 163 1836 q 368 1234 213 1836 l 368 1139 q 336 1107 368 1107 l 178 1107 q -12 1678 135 1107 l -12 1836 z "},"(":{"ha":1219,"x_min":79,"x_max":1061,"o":"m 886 1931 l 1061 1931 l 1061 1773 q 349 554 1061 1720 l 349 538 q 950 -522 947 -469 l 950 -681 l 776 -681 q 269 158 718 -644 q 79 538 79 436 l 79 554 q 427 1202 79 653 q 886 1931 863 1931 z "},")":{"ha":989,"x_min":117,"x_max":861,"o":"m 165 1931 l 323 1931 q 766 791 358 1927 q 861 507 861 580 l 861 395 q 307 -665 861 315 l 165 -665 q 117 -617 142 -665 l 117 -522 q 624 459 117 -461 q 133 1741 165 1699 l 133 1899 q 165 1931 138 1931 z "},"*":{"ha":1811,"x_min":162,"x_max":1681,"o":"m 969 1630 l 985 1535 q 954 1060 985 1370 q 1523 1361 1486 1361 l 1650 1361 q 1681 1329 1681 1356 l 1681 1187 q 1143 870 1615 1105 l 1143 839 q 1318 744 1318 791 l 1318 617 q 1270 570 1318 594 l 1191 570 q 922 665 1104 570 q 842 142 885 142 l 669 142 l 652 222 q 684 585 652 393 l 669 585 q 273 395 351 395 l 241 395 l 162 412 l 162 602 l 479 791 q 526 823 526 791 l 526 839 q 257 965 257 928 l 257 1124 q 289 1155 262 1155 l 447 1155 q 716 1029 519 1105 q 795 1630 758 1630 l 969 1630 z "},"+":{"ha":2553,"x_min":170,"x_max":2401,"o":"m 1103 1234 l 1278 1234 l 1293 1155 q 1246 602 1293 991 q 2354 696 2163 696 q 2401 680 2384 680 l 2401 507 q 1278 380 2401 454 q 1198 63 1198 380 q 1119 -349 1162 -349 l 977 -349 q 929 -237 945 -349 q 993 348 977 270 q 170 285 430 285 l 170 475 q 961 570 170 526 q 1056 1187 1056 570 q 1103 1234 1056 1210 z "},",":{"ha":768,"x_min":42,"x_max":627,"o":"m 596 269 q 627 237 627 264 l 627 127 q 216 -744 264 -744 l 74 -744 q 42 -712 42 -744 l 42 -586 q 422 269 42 -537 l 596 269 z "},"-":{"ha":1957,"x_min":107,"x_max":1816,"o":"m 1753 696 l 1769 696 q 1816 649 1792 696 l 1816 522 q 1246 427 1816 458 q 170 317 437 317 l 155 317 q 107 364 132 317 l 107 507 q 1120 633 107 554 q 1753 696 1486 696 z "},".":{"ha":1115,"x_min":45,"x_max":1042,"o":"m 900 142 l 1011 142 q 1042 111 1042 138 l 1042 -63 l 203 -349 l 77 -349 q 45 -317 45 -349 l 45 -159 q 900 142 45 -122 z "},"/":{"ha":1213,"x_min":-15,"x_max":1188,"o":"m 1014 1899 l 1141 1899 q 1188 1851 1163 1899 l 1188 1773 q 191 -617 1188 1685 l 159 -633 l 17 -633 q -15 -602 -15 -633 l -15 -507 q 982 1883 -15 -420 l 1014 1899 z "},":":{"ha":1163,"x_min":97,"x_max":1063,"o":"m 873 823 l 1015 823 q 1046 791 1046 818 l 1046 696 q 841 538 1046 593 q 239 237 627 395 l 176 237 l 97 253 l 97 412 q 730 760 97 459 q 873 823 801 823 m 1015 32 q 1063 16 1046 16 l 1063 -159 q 302 -349 1063 -210 l 192 -349 q 160 -317 160 -349 l 160 -174 q 999 32 160 -109 l 1015 32 z "},";":{"ha":1084,"x_min":52,"x_max":1048,"o":"m 890 823 l 1017 823 q 1048 791 1048 818 l 1048 696 q 780 538 1048 586 l 257 317 l 67 317 l 52 395 l 52 490 q 827 807 52 545 q 890 823 827 823 m 827 158 l 859 158 l 938 142 l 938 0 q 621 -696 708 -598 l 447 -696 l 447 -554 q 732 142 447 -467 l 827 158 z "},"<":{"ha":1621,"x_min":52,"x_max":1587,"o":"m 1318 1234 l 1428 1219 l 1428 1044 q 558 585 1396 976 q 1413 412 558 546 q 1587 364 1413 395 l 1587 190 q 1555 158 1587 158 l 1523 158 q 67 412 1373 158 l 52 490 l 52 585 q 922 1060 67 628 q 1270 1234 958 1060 l 1318 1234 z "},"=":{"ha":1948,"x_min":83,"x_max":1887,"o":"m 1618 997 l 1666 997 q 1697 965 1697 992 l 1697 823 q 1175 728 1697 760 q 115 602 384 602 q 83 633 83 602 l 83 823 q 1618 997 1468 997 m 146 348 q 1761 317 353 348 q 1887 269 1887 307 l 1887 95 q 1824 79 1851 95 q 115 111 839 111 l 98 142 l 98 300 q 146 348 98 323 z "},">":{"ha":1670,"x_min":64,"x_max":1615,"o":"m 254 1282 l 317 1282 q 1615 649 357 1282 l 1615 475 q 222 0 1615 427 l 80 0 l 64 79 l 64 127 q 254 253 75 253 q 1173 570 269 269 l 1173 585 q 175 1060 208 1060 l 175 1266 l 254 1282 z "},"?":{"ha":1776,"x_min":-79,"x_max":1693,"o":"m 1535 1756 l 1662 1756 q 1693 1725 1693 1752 l 1693 1567 q 918 538 990 658 q 934 111 934 222 q 886 -16 924 -16 l 744 -16 q 696 111 696 -6 l 696 649 q 1124 1266 696 726 l 1202 1377 l 1187 1377 q 47 965 109 965 l 0 965 l -79 981 l -79 1171 q 363 1329 -68 1198 q 1535 1756 1440 1756 m 1472 -32 q 1503 -63 1503 -37 l 1503 -222 q 601 -649 1419 -296 l 490 -649 q 458 -617 458 -649 l 458 -427 q 1345 -32 482 -427 l 1472 -32 z "},"@":{"ha":2613,"x_min":-30,"x_max":2518,"o":"m 1221 1899 l 1379 1899 q 2518 633 1521 1773 l 2518 475 q 1695 -16 2507 427 q 1394 -174 1451 -174 l 1221 -174 l 1221 127 l 682 427 l 682 617 q 1284 1092 692 646 l 1411 1092 q 1537 997 1537 1092 l 1537 981 l 1458 158 l 1474 158 q 2202 585 2195 563 q 1316 1598 1375 1510 l 1284 1598 q 271 633 273 651 q 1268 -459 416 441 q 2360 95 2047 -35 l 2471 95 q 2502 63 2502 90 l 2502 -111 q 1284 -728 1321 -728 l 1189 -728 q 857 -412 1099 -728 q -30 554 811 -382 l -30 712 q 1221 1899 391 1148 m 1031 554 q 1236 443 1130 443 l 1268 728 l 1252 728 q 1031 554 1031 570 z "},"A":{"ha":2867,"x_min":18,"x_max":2820,"o":"m 1442 1836 q 2123 902 1531 1747 l 2313 918 l 2519 918 q 2582 854 2544 918 l 2582 633 q 2376 554 2582 579 l 2820 -63 l 2820 -285 q 2756 -349 2820 -310 l 2551 -349 q 1902 522 2384 -182 q 842 395 842 443 q 319 -522 376 -465 l 81 -522 q 18 -459 57 -522 l 18 -285 q 382 395 18 -243 l 161 395 q 98 459 136 395 l 98 665 q 588 775 98 753 q 1190 1836 1136 1782 l 1442 1836 m 1332 1297 l 1079 807 l 1110 823 q 1649 854 1573 854 l 1649 870 q 1332 1297 1381 1249 z "},"B":{"ha":2495,"x_min":-62,"x_max":2454,"o":"m 1 1946 l 238 1946 q 2233 1044 370 1873 l 2264 997 l 2264 775 q 1726 585 2264 706 q 1362 475 1722 574 l 1362 459 q 2438 190 2338 253 l 2454 158 l 2454 -63 q 1773 -285 2454 -142 q 143 -712 272 -712 l 17 -712 q -47 -649 -8 -712 l -47 -427 q 365 -269 -47 -369 l 365 -254 q 380 1234 380 688 l 380 1440 q -62 1678 -62 1604 l -62 1836 q 1 1946 -62 1921 m 729 1282 l 729 696 q 1520 918 1497 918 l 1520 934 q 729 1282 1382 985 m 729 222 l 729 -174 l 1504 32 l 1504 47 l 729 222 z "},"C":{"ha":2119,"x_min":-92,"x_max":2108,"o":"m 541 1963 l 731 1963 q 1174 1646 791 1963 q 1886 1076 1874 1104 l 1886 854 q 1823 791 1886 830 l 1601 791 l 779 1440 q 572 617 743 1440 q 351 -301 557 604 q 1870 253 1733 222 l 2060 253 q 2108 205 2083 253 l 2108 -16 q 1538 -269 2108 -92 q 145 -791 229 -791 l -13 -791 q -92 -712 -35 -791 l -92 -570 q 477 1915 -92 -487 l 541 1963 z "},"D":{"ha":2414,"x_min":-140,"x_max":2376,"o":"m -77 1804 l 129 1804 q 2329 886 164 1804 l 2376 823 l 2376 649 q 2012 364 2376 538 q 429 -633 646 -522 q 302 -696 429 -675 l 129 -696 q 65 -633 104 -696 l 65 -427 q 366 -190 84 -380 l 366 -159 q 397 1266 366 113 q -140 1519 -96 1468 l -140 1741 q -77 1804 -140 1765 m 762 1092 q 746 965 746 1005 q 730 32 746 838 q 1775 696 1667 602 l 762 1107 l 762 1092 z "},"E":{"ha":2669,"x_min":44,"x_max":2656,"o":"m 123 1820 l 281 1820 q 2371 965 2044 1124 l 2386 886 l 2386 728 q 2323 665 2386 703 l 2133 665 q 851 1171 2054 665 l 851 570 q 1200 585 1088 585 l 1753 585 q 1817 475 1817 559 l 1817 317 q 1722 237 1787 259 q 851 222 1148 222 l 851 -206 q 2466 269 2344 269 l 2592 269 q 2656 205 2617 269 l 2656 -16 q 2038 -237 2656 -83 q 313 -776 1925 -285 l 186 -776 q 76 -712 102 -776 l 76 -491 q 503 -317 76 -416 l 503 205 l 266 205 q 186 285 244 205 l 186 443 q 250 554 186 528 l 313 554 l 503 570 l 487 760 l 487 1297 q 76 1488 486 1320 q 44 1583 44 1539 l 44 1693 q 123 1820 44 1780 z "},"F":{"ha":2082,"x_min":-144,"x_max":2119,"o":"m -64 1868 l 157 1868 q 1898 1282 197 1820 q 2119 1155 2112 1207 l 2119 934 q 2072 886 2119 911 l 1866 886 q 663 1266 1828 886 l 663 680 q 1407 665 879 680 q 1470 585 1470 594 l 1470 380 q 1407 317 1470 355 l 727 317 l 648 332 l 648 -63 q 568 -507 648 -507 l 347 -507 q 283 -396 283 -481 l 283 332 l 252 332 q 46 412 70 332 l 46 633 q 189 696 67 696 l 299 696 l 299 1393 q -144 1583 -144 1514 l -144 1741 q -64 1868 -144 1827 z "},"G":{"ha":2233,"x_min":24,"x_max":2065,"o":"m 1527 1773 l 1765 1773 q 1828 1709 1790 1773 l 1828 1503 q 625 570 1769 1428 q 546 490 546 505 q 1702 -190 573 490 l 1717 0 l 1717 617 q 1796 744 1717 703 l 1986 744 q 2065 665 2007 744 l 2065 -538 q 1986 -696 2065 -661 l 1749 -696 l 24 348 l 24 602 q 1527 1773 56 649 z "},"H":{"ha":2655,"x_min":-41,"x_max":2649,"o":"m 1874 1851 l 2095 1851 q 2206 1503 2174 1851 l 2285 680 l 2523 680 q 2649 602 2608 680 l 2649 412 q 2333 317 2649 317 l 2333 300 q 2412 -459 2412 -239 l 2412 -602 q 2348 -665 2412 -626 l 2143 -665 q 2000 79 2043 -665 q 1969 317 1980 79 l 1952 317 q 655 300 1478 317 q 496 -459 571 -459 l 275 -459 q 212 -396 250 -459 l 212 -285 q 275 300 212 -178 l 22 300 q -41 364 -3 300 l -41 602 q 22 665 -41 626 l 149 665 l 338 649 l 338 665 q 449 1456 433 1426 l 513 1503 l 671 1503 q 782 1440 756 1503 l 782 1282 q 703 665 782 1096 l 1177 665 q 1921 680 1421 665 l 1810 1693 l 1810 1788 q 1874 1851 1810 1813 z "},"I":{"ha":1622,"x_min":20,"x_max":1539,"o":"m 162 1678 l 225 1678 q 1523 1535 1523 1577 l 1539 1503 l 1539 1282 q 1476 1219 1539 1257 l 1349 1219 q 1001 1234 1238 1219 l 890 -237 l 1143 -222 q 1301 -301 1262 -222 l 1301 -507 q 1191 -586 1254 -586 q 178 -633 1034 -586 q 20 -554 20 -610 l 20 -349 q 99 -269 20 -327 l 178 -269 q 526 -254 289 -269 l 526 -237 l 637 1282 l 621 1282 q 115 1393 115 1303 l 115 1630 q 162 1678 115 1653 z "},"J":{"ha":2223,"x_min":-24,"x_max":2160,"o":"m 1986 1598 l 2081 1598 q 2160 1519 2102 1598 l 2160 1329 q 1574 1187 2160 1227 q 1369 1155 1574 1155 l 1369 1139 q 1495 -538 1369 1022 q 1416 -712 1471 -712 l 1226 -712 q 118 -63 1153 -712 l 118 190 q 165 237 118 212 l 403 237 q 1099 -174 1036 -159 l 1099 -159 l 1004 1092 q 150 981 262 981 l 39 981 q -24 1044 14 981 l -24 1266 q 530 1393 -24 1351 q 1986 1598 1771 1598 z "},"K":{"ha":2289,"x_min":-42,"x_max":2237,"o":"m 1699 1693 l 1889 1693 q 1952 1583 1952 1668 l 1952 1409 q 1619 1202 1952 1380 q 543 570 576 570 l 543 554 q 2221 -254 749 475 l 2237 -285 l 2237 -507 q 2126 -570 2212 -570 l 1999 -570 q 496 142 1714 -459 l 496 127 q 512 -412 512 -204 l 512 -444 q 433 -570 512 -529 l 275 -570 q 148 -349 148 -570 q 132 317 148 -105 q -42 427 -42 394 l -42 649 q 116 775 4 730 q 100 1361 100 1177 l 100 1551 q 180 1630 100 1572 l 370 1630 q 448 1567 439 1567 q 465 1092 465 1250 l 465 997 l 480 997 q 1699 1693 1649 1693 z "},"L":{"ha":2255,"x_min":-28,"x_max":2235,"o":"m 415 1709 l 621 1709 q 684 1646 646 1709 l 684 1503 q 384 -190 684 1345 l 399 -190 q 1998 317 1951 317 l 2157 317 q 2235 237 2178 317 l 2235 47 q 1491 -237 2235 -36 q 225 -649 891 -459 l 35 -649 q -28 -586 11 -649 l -28 -444 q 368 1678 -28 -216 l 415 1709 z "},"M":{"ha":2618,"x_min":20,"x_max":2505,"o":"m 1777 1915 l 1888 1915 q 2046 1678 2018 1915 q 2505 -380 2505 -310 l 2505 -538 q 2442 -602 2505 -563 l 2236 -602 q 2046 -16 2150 -602 l 1793 1044 l 1777 1044 q 1350 -159 1777 1004 q 1255 -190 1298 -190 l 1081 -190 q 812 380 1021 -188 q 653 760 796 380 l 637 760 q 337 -491 385 -402 l 83 -491 q 20 -427 59 -491 l 20 -285 q 432 1535 20 -181 l 479 1567 l 701 1567 q 954 1044 768 1567 q 1192 538 1140 600 q 1682 1883 1651 1859 q 1777 1915 1734 1915 z "},"N":{"ha":2300,"x_min":75,"x_max":2164,"o":"m 1706 1788 l 1911 1788 q 2022 1124 2003 1788 q 2164 -617 2164 -304 l 2164 -681 q 2085 -760 2164 -702 l 1927 -760 q 1516 -332 1827 -760 q 566 775 1489 -321 l 550 775 q 423 -349 423 -246 l 360 -396 l 138 -396 q 75 -332 114 -396 l 75 -222 q 250 1345 75 -9 q 313 1409 296 1409 l 550 1409 l 1753 16 l 1753 32 q 1626 1693 1626 1519 q 1706 1788 1648 1758 z "},"O":{"ha":2678,"x_min":3,"x_max":2662,"o":"m 1332 1646 l 1554 1646 l 2108 1029 q 2662 380 2662 471 l 2662 253 q 2266 -142 2662 161 q 1491 -807 1548 -803 l 1284 -807 q 18 222 161 79 q 3 285 3 249 l 3 412 q 288 712 3 505 q 1332 1646 636 1044 m 1411 1187 l 493 348 l 1396 -380 q 2203 348 2199 328 q 1411 1187 2189 348 z "},"P":{"ha":2081,"x_min":-214,"x_max":2161,"o":"m -151 1868 l 39 1868 q 2129 1155 2102 1187 l 2161 1107 l 2161 902 q 1527 617 2161 827 q 593 253 658 253 q 625 -538 593 -85 q 546 -728 605 -728 l 324 -728 q 229 174 229 -728 q 151 237 183 174 l 151 459 l 214 538 q 182 1409 182 1211 q -214 1583 -203 1522 l -214 1804 q -151 1868 -214 1829 m 546 1282 q 562 665 562 867 l 578 665 q 1417 981 1392 981 l 1417 997 l 546 1282 z "},"Q":{"ha":2825,"x_min":15,"x_max":2737,"o":"m 1281 1678 l 1439 1678 q 1914 1219 1533 1678 q 2532 522 2532 581 l 2532 332 q 2199 0 2532 317 q 2737 -444 2641 -348 l 2737 -681 q 2690 -728 2737 -703 l 2500 -728 q 2199 -522 2437 -728 q 1898 -285 1988 -342 q 1471 -649 1515 -649 l 1297 -649 q 695 -254 1238 -649 q 15 253 143 115 l 15 412 q 537 949 15 511 q 1281 1678 1281 1662 m 505 364 q 1360 -222 536 364 l 1581 -16 q 1186 317 1238 249 l 1186 554 q 1249 617 1186 578 l 1455 617 q 1883 269 1575 496 q 2072 459 1904 269 l 1392 1187 l 1376 1187 q 505 364 510 388 z "},"R":{"ha":2740,"x_min":41,"x_max":2700,"o":"m 104 1931 l 311 1931 q 1988 1187 349 1931 q 2209 1044 2170 1124 l 2209 886 q 1877 712 2209 751 q 943 475 943 507 q 2684 -269 2267 -63 l 2700 -301 l 2700 -507 q 2637 -570 2700 -531 l 2431 -570 q 579 205 2393 -570 q 406 -586 461 -586 l 374 -602 l 184 -602 q 104 -475 104 -561 l 104 -444 q 231 364 104 -271 q 136 427 162 364 l 136 649 q 294 744 136 695 q 421 1456 374 1246 q 41 1646 73 1592 l 41 1868 q 104 1931 41 1892 m 770 1297 q 690 823 690 864 q 1418 997 850 870 l 1418 1013 q 770 1297 1394 1013 z "},"S":{"ha":2621,"x_min":-1,"x_max":2578,"o":"m 1977 1868 l 2214 1868 q 2262 1820 2237 1868 l 2262 1583 q 1170 823 2139 1444 q 948 649 1170 808 q 2389 823 2237 823 l 2499 823 q 2578 744 2521 823 l 2578 538 q 1075 -744 2549 492 l 838 -744 q 790 -696 814 -744 l 790 -459 l 1771 380 l 1755 380 q 109 190 292 190 q -1 253 24 190 l -1 490 q 980 1171 14 525 q 1977 1868 1921 1811 z "},"T":{"ha":2457,"x_min":-161,"x_max":2371,"o":"m -82 1693 q 2355 1598 2355 1666 l 2371 1567 l 2371 1345 q 2276 1282 2339 1282 q 1358 1297 1568 1297 l 1279 1314 q 1025 -665 1215 725 l 962 -712 l 757 -712 q 693 -649 732 -712 l 693 -522 q 915 1314 693 -300 q -66 1345 648 1329 q -161 1424 -132 1367 l -161 1630 q -82 1693 -129 1693 z "},"U":{"ha":2128,"x_min":107,"x_max":2022,"o":"m 1436 1756 l 1595 1756 q 1801 1013 1685 1756 q 2022 -63 2022 93 l 2022 -237 q 1294 -427 2022 -320 q 313 -617 460 -617 l 234 -617 q 107 -491 107 -617 l 107 617 q 123 981 107 768 q 107 1250 107 1017 l 107 1282 q 186 1361 107 1303 l 408 1361 q 471 1297 433 1361 l 471 -206 l 487 -206 l 1626 16 q 1326 1535 1326 1457 l 1326 1693 q 1436 1756 1352 1756 z "},"V":{"ha":2062,"x_min":-149,"x_max":2067,"o":"m 1782 1915 l 2004 1915 q 2067 1804 2067 1889 l 2067 1709 q 1782 1139 2067 1615 q 785 -633 896 -460 l 753 -649 l 532 -649 q 263 111 465 -649 q -149 1424 231 175 l -149 1614 q -85 1678 -149 1639 l 152 1678 q 342 1124 203 1678 q 690 32 389 1006 l 706 32 q 1750 1899 1541 1546 l 1782 1915 z "},"W":{"ha":2461,"x_min":-108,"x_max":2424,"o":"m -45 1788 l 177 1788 q 335 1314 246 1788 q 652 79 351 1308 l 668 79 q 1126 1139 1048 1074 l 1348 1139 q 1554 696 1417 1139 q 1744 190 1744 245 l 1775 190 q 2124 1377 2082 1377 l 2155 1393 l 2361 1393 q 2424 1329 2386 1393 l 2424 1139 q 1950 -586 2377 906 l 1902 -617 l 1681 -617 q 1459 -127 1607 -617 q 1253 412 1333 158 l 1221 412 q 731 -712 819 -633 l 557 -712 q 382 -380 422 -712 q -108 1535 -108 1491 l -108 1725 q -45 1788 -108 1750 z "},"X":{"ha":2096,"x_min":-94,"x_max":2090,"o":"m 1805 1883 l 2042 1883 q 2090 1836 2065 1883 l 2090 1646 q 1631 1060 2090 1567 q 1409 775 1631 1037 q 1172 475 1172 492 q 1757 -16 1578 179 l 1757 -237 q 1710 -285 1757 -260 l 1472 -285 l 903 174 l 206 -696 l -47 -696 q -94 -649 -70 -696 l -94 -412 l 602 443 q 143 807 567 453 q 64 934 64 848 l 64 1107 q 127 1171 64 1133 l 365 1171 q 871 760 808 760 q 1805 1883 1608 1670 z "},"Y":{"ha":2229,"x_min":-92,"x_max":2235,"o":"m 2188 1820 q 2235 1773 2210 1820 l 2235 1519 q 383 -728 506 -621 q 320 -744 355 -744 l 178 -744 q 98 -586 122 -744 q 256 -269 98 -416 q 827 443 617 171 q -92 1456 -92 1393 l -92 1646 q -28 1709 -92 1670 l 146 1709 q 446 1424 239 1709 l 1080 760 q 1934 1820 1762 1552 l 2188 1820 z "},"Z":{"ha":2551,"x_min":16,"x_max":2533,"o":"m 2026 1931 l 2153 1931 q 2264 1868 2238 1931 l 2264 1630 l 918 -32 l 918 -47 q 2279 585 2224 585 l 2485 585 q 2533 538 2508 585 l 2533 317 q 1235 -332 2533 253 q 269 -791 323 -791 l 79 -791 q 16 -728 55 -791 l 16 -507 l 1440 1266 l 1425 1266 q 301 807 342 807 l 127 807 q 48 886 106 807 l 48 1044 q 364 1250 48 1164 q 2026 1931 1973 1931 z "},"[":{"ha":1171,"x_min":41,"x_max":1117,"o":"m 911 1915 l 927 1883 l 927 1693 l 737 1678 l 436 1678 l 278 1662 q 389 -522 373 -522 q 1022 -444 930 -444 l 1038 -444 l 1117 -459 l 1117 -617 q 262 -776 1117 -688 l 215 -776 q 120 253 120 -776 q 41 1820 101 253 q 357 1899 41 1899 q 911 1915 550 1915 z "},"\\":{"ha":1773,"x_min":41,"x_max":1718,"o":"m 73 1946 l 215 1946 q 785 1060 321 1846 q 1718 -459 1650 -312 l 1718 -538 l 1702 -617 l 1576 -617 q 1417 -444 1486 -617 l 41 1756 l 41 1915 q 73 1946 45 1946 z "},"]":{"ha":1108,"x_min":41,"x_max":1054,"o":"m 246 1931 l 357 1931 q 1054 1678 1054 1729 l 1054 1567 q 673 -696 1054 1362 l 642 -712 l 610 -712 q 41 -617 41 -691 l 41 -491 q 88 -444 41 -468 l 104 -444 q 484 -475 281 -444 l 817 1519 q 215 1756 215 1716 l 215 1899 q 246 1931 220 1931 z "},"^":{"ha":1298,"x_min":41,"x_max":1244,"o":"m 626 1693 l 785 1693 q 1244 1060 806 1692 l 1244 886 q 1212 854 1244 854 l 1133 854 q 769 1282 1019 854 l 690 1361 l 231 870 l 73 870 q 41 902 41 870 l 41 1060 q 626 1693 609 1693 z "},"_":{"ha":2390,"x_min":41,"x_max":2336,"o":"m 136 -301 l 2146 -301 l 2336 -317 l 2336 -522 l 2225 -538 l 1861 -538 q 326 -522 1189 -538 q 73 -538 202 -538 l 41 -491 l 41 -396 q 136 -301 41 -301 z "},"`":{"ha":408,"x_min":41,"x_max":353,"o":"m 353 732 l 307 732 l 83 869 q 51 896 62 882 q 41 924 41 909 q 55 959 41 945 q 91 972 68 972 q 118 964 104 972 q 156 932 132 956 l 353 732 z "},"a":{"ha":2730,"x_min":83,"x_max":2757,"o":"m 1238 1725 l 1428 1725 l 2077 791 q 2473 807 2338 807 l 2488 807 q 2520 775 2520 802 l 2520 602 q 2251 570 2378 570 l 2757 -142 l 2757 -301 q 2726 -332 2757 -332 l 2583 -332 q 1950 538 2443 -192 q 795 412 795 464 q 273 -507 320 -475 l 115 -507 q 83 -475 83 -507 l 83 -364 q 494 412 83 -328 l 193 412 q 162 443 162 412 l 162 585 q 637 665 162 642 q 1238 1725 1197 1703 m 1317 1377 q 954 696 1274 1263 l 969 696 q 1776 760 1058 696 q 1349 1377 1378 1316 l 1317 1377 z "},"b":{"ha":2456,"x_min":63,"x_max":2453,"o":"m 79 1836 l 269 1836 q 2184 981 385 1756 q 2263 918 2263 935 l 2263 760 q 1155 427 2222 712 l 1155 412 q 2453 79 2453 117 l 2453 -79 q 1044 -475 2453 -127 q 174 -696 300 -696 l 111 -696 q 79 -665 79 -696 l 79 -507 q 506 -364 79 -479 q 490 -301 506 -328 q 506 1107 506 579 l 506 1440 q 63 1646 94 1609 l 63 1756 l 79 1836 m 728 1329 l 728 554 q 1788 854 1683 839 l 1788 870 q 728 1329 753 1329 m 728 269 l 728 -317 q 1851 -16 977 -237 l 1851 0 q 728 269 1678 32 z "},"c":{"ha":2018,"x_min":23,"x_max":2096,"o":"m 625 1851 l 751 1851 q 1242 1488 827 1851 q 1874 997 1269 1488 l 1874 839 q 1843 807 1874 807 l 1685 807 q 767 1519 897 1436 l 308 -459 q 1954 142 1817 111 l 2096 142 l 2096 -32 q 1147 -412 2096 -79 q 165 -776 250 -776 l 71 -776 q 23 -728 47 -776 l 23 -649 q 577 1788 23 -589 q 625 1851 601 1851 z "},"d":{"ha":2330,"x_min":-64,"x_max":2326,"o":"m -32 1693 l 111 1693 q 2326 760 1367 1187 l 2326 633 q 2072 427 2326 539 q 300 -681 633 -507 l 174 -681 q 142 -649 142 -681 l 142 -507 q 427 -301 178 -447 l 443 -237 q 474 1282 443 -98 q -64 1519 -64 1478 l -64 1662 q -32 1693 -59 1693 m 712 1171 l 665 -142 l 680 -142 q 1930 633 1879 613 l 1930 665 q 712 1171 1902 665 z "},"e":{"ha":2534,"x_min":105,"x_max":2590,"o":"m 153 1709 l 248 1709 q 2321 854 2291 902 l 2321 712 q 2289 680 2321 680 l 2163 680 q 785 1219 2078 689 l 785 459 q 1371 475 1187 475 l 1735 475 l 1751 395 l 1751 300 q 1688 253 1751 277 q 802 237 1124 237 l 785 205 l 785 -332 l 2448 158 l 2558 158 q 2590 127 2590 153 l 2590 -32 q 1276 -444 2590 -69 q 279 -760 1124 -507 l 216 -760 l 137 -744 l 137 -570 q 564 -412 137 -527 l 564 222 l 295 222 q 248 269 272 222 l 248 364 l 263 443 l 295 443 q 564 459 378 443 q 548 886 548 751 l 548 1297 q 121 1503 536 1320 q 105 1567 105 1531 l 105 1614 q 153 1709 115 1709 z "},"f":{"ha":1905,"x_min":-78,"x_max":2058,"o":"m -31 1756 l 127 1756 q 2011 1124 172 1709 q 2058 1076 2058 1087 l 2058 902 l 1900 902 q 602 1314 1864 902 l 602 1297 q 587 570 587 795 l 602 570 q 1378 554 847 570 l 1410 507 l 1410 364 q 1378 332 1410 332 l 903 332 q 587 348 800 332 l 587 -79 q 539 -491 587 -491 l 365 -491 l 349 -412 l 349 348 l 286 348 q 112 395 112 348 l 112 570 l 222 585 l 365 585 l 365 1377 q -62 1535 365 1409 l -78 1614 l -78 1662 q -31 1756 -68 1756 z "},"g":{"ha":2143,"x_min":85,"x_max":2001,"o":"m 1557 1662 l 1731 1662 q 1763 1630 1763 1657 l 1763 1488 q 433 475 1238 1058 l 433 427 l 1763 -349 l 1763 -332 q 1779 47 1779 -110 l 1779 538 q 1826 633 1789 633 l 1953 633 q 2001 585 1976 633 l 2001 -554 q 1953 -681 2001 -671 l 1779 -681 q 85 332 123 327 l 85 522 q 1557 1662 214 634 z "},"h":{"ha":2570,"x_min":37,"x_max":2601,"o":"m 1921 1741 l 2079 1741 q 2158 1297 2139 1741 q 2253 570 2174 1245 l 2507 570 q 2601 522 2601 559 l 2601 395 q 2285 317 2601 348 q 2364 -538 2364 -426 l 2364 -617 q 2332 -649 2364 -649 l 2190 -649 q 2047 332 2129 -649 l 1984 332 q 607 317 1469 332 q 496 -444 528 -336 l 322 -444 q 290 -412 290 -444 l 290 -364 q 370 317 290 -236 l 69 317 q 37 348 37 317 l 37 522 q 85 554 37 554 q 385 538 134 554 q 512 1361 425 538 l 559 1393 l 654 1393 l 734 1377 l 734 1266 q 654 554 734 1171 l 1145 554 q 2016 570 1442 554 q 1889 1678 1889 1584 l 1889 1709 q 1921 1741 1894 1741 z "},"i":{"ha":1529,"x_min":94,"x_max":1487,"o":"m 189 1567 l 204 1567 q 1487 1440 416 1567 l 1487 1266 q 1455 1234 1487 1234 l 1423 1234 q 980 1266 1162 1234 q 838 -285 939 1266 q 822 -349 822 -285 l 853 -349 q 1138 -332 989 -349 q 1249 -380 1249 -349 l 1249 -522 q 1170 -570 1249 -558 q 220 -617 956 -570 q 94 -570 94 -602 l 94 -427 q 141 -380 94 -405 l 173 -380 q 600 -364 308 -380 l 600 -349 q 726 1282 600 -160 q 189 1377 189 1335 l 189 1567 z "},"j":{"ha":2072,"x_min":-8,"x_max":2049,"o":"m 1970 1488 l 2002 1488 q 2049 1440 2024 1488 l 2049 1314 q 1400 1187 2049 1250 q 1242 1155 1400 1168 q 1385 -538 1369 -439 q 1337 -696 1369 -696 l 1211 -696 q 134 -63 1133 -696 l 134 127 l 324 127 l 1131 -364 q 1021 1124 1021 984 l 1005 1124 q 71 997 201 997 l 24 997 q -8 1029 -8 997 l -8 1187 q 941 1345 -8 1234 q 1970 1488 1765 1488 z "},"k":{"ha":2202,"x_min":54,"x_max":2206,"o":"m 1763 1583 l 1905 1583 l 1921 1503 l 1921 1393 l 1557 1171 q 449 507 513 570 l 449 490 q 2206 -364 2110 -290 l 2206 -538 l 2127 -554 l 2064 -554 q 908 -16 2026 -554 q 465 190 513 190 l 465 174 q 481 -491 481 -431 q 433 -554 457 -554 l 338 -554 l 259 -538 q 228 317 243 -373 q 54 395 81 395 l 54 570 q 212 680 123 660 q 196 1472 196 1228 q 243 1519 196 1495 l 370 1519 l 418 1488 q 433 1013 433 1171 l 433 839 q 1494 1456 505 839 q 1763 1583 1725 1583 z "},"l":{"ha":2127,"x_min":56,"x_max":2193,"o":"m 468 1598 l 610 1598 q 642 1567 642 1594 l 642 1488 q 326 -349 642 1385 q 2050 205 1987 205 l 2145 205 q 2193 158 2168 205 l 2193 32 q 1480 -222 2193 -24 q 214 -633 880 -444 l 88 -633 q 56 -602 56 -633 l 56 -522 q 436 1583 56 -363 l 468 1598 z "},"m":{"ha":2485,"x_min":45,"x_max":2403,"o":"m 1771 1804 l 1818 1804 q 1944 1614 1918 1804 q 2403 -459 2403 -404 l 2403 -554 q 2372 -586 2403 -586 l 2230 -586 q 2071 -16 2170 -586 l 1771 1234 l 1754 1234 q 1249 -159 1312 -24 q 1185 -174 1221 -174 l 1074 -174 q 600 934 1039 -170 l 583 934 q 267 -475 267 -414 l 77 -475 q 45 -444 45 -475 l 45 -364 q 457 1456 45 -260 l 631 1456 q 821 1044 673 1456 q 1154 300 1123 318 l 1691 1788 l 1771 1804 z "},"n":{"ha":2167,"x_min":140,"x_max":2102,"o":"m 1738 1678 l 1881 1678 q 2007 475 1939 1678 q 2102 -696 2102 -368 q 2055 -744 2102 -720 l 1960 -744 q 1643 -427 1870 -744 q 504 886 528 878 q 361 -364 361 -261 l 330 -380 l 172 -380 q 140 -349 140 -380 l 140 -301 q 330 1297 140 9 l 519 1297 l 1833 -237 l 1849 -237 q 1833 -190 1833 -207 l 1691 1614 q 1738 1678 1714 1678 z "},"o":{"ha":2651,"x_min":106,"x_max":2639,"o":"m 1404 1535 l 1563 1535 q 2370 649 1681 1385 q 2639 300 2639 380 l 2639 237 q 2401 -16 2639 151 q 1563 -760 2401 -29 q 1483 -791 1563 -791 l 1357 -791 q 122 205 968 -498 q 106 269 106 233 l 106 332 q 359 602 106 420 q 1404 1535 708 934 m 423 300 q 1452 -507 1407 -507 q 2338 269 2128 107 q 1468 1219 2338 302 l 1452 1219 q 423 300 964 793 z "},"p":{"ha":1975,"x_min":-157,"x_max":2091,"o":"m -125 1756 l 1 1756 q 2075 1060 27 1756 l 2091 1029 l 2091 886 q 1204 522 2091 839 q 508 237 1161 490 l 524 174 q 540 -507 540 -437 l 555 -570 q 508 -712 536 -712 l 334 -712 q 286 190 302 -376 q 208 222 208 190 l 208 380 q 271 412 208 412 q 223 1424 243 1424 q -157 1567 -157 1532 l -157 1725 q -125 1756 -152 1756 m 460 1329 l 476 1297 q 492 602 476 1228 l 508 522 l 1600 934 l 1600 965 q 476 1329 1570 965 l 460 1329 z "},"q":{"ha":2725,"x_min":71,"x_max":2666,"o":"m 1305 1598 l 1400 1598 q 1796 1219 1491 1598 q 2460 475 2460 541 l 2460 348 q 2096 -16 2460 338 q 2666 -475 2631 -475 l 2666 -681 l 2523 -681 q 2128 -396 2456 -681 l 1891 -206 q 1432 -602 1478 -602 l 1321 -602 q 213 158 1249 -602 q 71 269 164 158 l 71 364 q 545 854 71 463 q 1305 1598 1287 1560 m 403 348 l 403 332 q 1369 -317 1343 -317 l 1384 -317 q 1669 -32 1384 -305 l 1242 332 l 1242 507 q 1274 538 1246 538 l 1416 538 q 1874 158 1502 452 q 2159 427 1883 158 q 1384 1266 1523 1143 q 403 348 699 661 z "},"r":{"ha":2696,"x_min":119,"x_max":2652,"o":"m 151 1820 l 294 1820 q 2082 1029 331 1820 q 2161 965 2154 998 l 2161 870 q 1971 760 2161 760 q 736 475 1971 744 l 736 443 q 2652 -380 2599 -317 l 2652 -522 q 2620 -554 2652 -554 l 2477 -554 q 547 253 2442 -554 q 372 -586 416 -527 l 230 -586 q 182 -491 182 -570 l 309 364 l 294 364 q 214 412 214 385 l 214 570 q 372 649 214 593 l 499 1456 q 119 1614 155 1614 l 119 1788 q 151 1820 124 1820 m 736 1345 q 626 696 626 798 l 642 696 q 1638 918 1579 918 l 1638 949 l 736 1345 z "},"s":{"ha":2567,"x_min":119,"x_max":2572,"o":"m 2065 1756 l 2255 1756 l 2255 1567 q 736 522 2193 1489 l 736 507 l 751 507 q 2477 712 2357 712 l 2524 712 q 2572 665 2547 712 l 2572 522 q 1100 -728 2572 507 l 910 -728 l 910 -522 q 1733 158 971 -493 q 2049 412 2022 412 l 2049 427 l 2034 427 q 182 205 288 205 l 119 222 l 119 427 q 2034 1725 347 560 q 2065 1756 2039 1756 z "},"t":{"ha":2346,"x_min":-100,"x_max":2306,"o":"m -52 1583 q 2306 1503 2306 1545 l 2306 1314 l 2243 1297 q 1214 1329 1978 1297 l 1214 1314 q 945 -696 992 -606 l 787 -696 q 755 -665 755 -696 l 755 -602 q 977 1329 755 -471 l 961 1329 q -37 1361 656 1345 q -100 1409 -100 1385 l -100 1551 q -52 1583 -100 1583 z "},"u":{"ha":2028,"x_min":184,"x_max":1972,"o":"m 1482 1646 l 1577 1646 q 1814 633 1630 1646 q 1972 -142 1972 19 l 1972 -254 q 643 -538 1972 -301 q 294 -602 439 -602 l 279 -602 q 184 -507 184 -602 l 184 443 q 199 965 184 671 q 184 1219 184 1006 l 231 1250 l 389 1250 q 421 1219 421 1245 l 421 -349 l 1719 -79 l 1719 -47 q 1402 1519 1418 1344 l 1402 1630 l 1482 1646 z "},"v":{"ha":1876,"x_min":-58,"x_max":2030,"o":"m 1841 1804 l 2015 1804 l 2030 1725 l 2030 1693 q 1667 981 2030 1600 q 749 -633 871 -464 l 591 -633 q 290 269 564 -633 l -58 1409 l -58 1535 q -26 1567 -54 1567 l 163 1567 l 686 -190 l 701 -190 q 1619 1440 723 -189 q 1841 1804 1824 1803 z "},"w":{"ha":2367,"x_min":-56,"x_max":2350,"o":"m -24 1678 l 134 1678 q 245 1282 178 1678 q 625 -174 277 1223 q 1084 886 656 -146 q 1163 1029 1119 1029 l 1305 1029 q 1527 538 1336 1029 l 1748 -95 l 1765 -95 q 2160 1282 2129 1250 l 2319 1282 q 2350 1250 2350 1277 l 2350 1124 q 1875 -602 2302 890 l 1701 -602 q 1353 269 1659 -602 q 1242 570 1242 519 q 799 -475 1195 534 q 673 -696 709 -696 l 577 -696 q 467 -507 467 -696 q -56 1519 387 -264 l -56 1646 q -24 1678 -51 1678 z "},"x":{"ha":1887,"x_min":-34,"x_max":2024,"o":"m 1834 1773 l 2024 1773 l 2024 1630 q 1565 1044 2024 1551 q 1074 427 1512 960 q 1691 -95 1634 -18 l 1691 -269 l 1501 -269 l 900 222 q 188 -681 188 -624 l -34 -681 l -34 -491 l 678 380 l 678 395 q 140 854 678 408 q 124 918 124 882 l 124 1029 q 156 1060 130 1060 l 330 1060 q 852 617 417 958 l 868 617 l 1834 1773 z "},"y":{"ha":2128,"x_min":-31,"x_max":2169,"o":"m 1980 1709 l 2169 1709 l 2169 1503 q 349 -712 429 -649 q 286 -728 321 -728 l 207 -728 q 175 -696 175 -728 l 175 -522 l 903 380 q 1 1377 783 532 q -31 1456 -26 1377 l -31 1567 q 1 1598 -26 1598 l 112 1598 q 381 1345 199 1598 l 1093 602 q 1980 1709 1718 1369 z "},"z":{"ha":2379,"x_min":35,"x_max":2424,"o":"m 2013 1820 l 2076 1820 l 2155 1804 l 2155 1614 l 620 -285 l 636 -285 q 2266 475 2215 475 l 2424 475 l 2424 300 q 1190 -317 2409 269 l 209 -776 l 66 -776 q 35 -744 35 -776 l 35 -586 l 1617 1377 l 1601 1377 l 224 823 l 114 823 q 66 870 91 823 l 66 965 q 240 1092 66 1064 q 2013 1820 1954 1820 z "},"{":{"ha":1693,"x_min":41,"x_max":1639,"o":"m 1196 1883 l 1354 1883 q 1386 1851 1386 1879 l 1386 1678 q 294 728 326 728 q 326 -174 326 130 l 1639 -349 l 1639 -538 q 1607 -570 1639 -570 l 1529 -570 q 136 -412 1345 -570 q 56 680 56 -314 q 41 775 41 680 q 231 1044 41 928 q 1196 1883 1074 1793 z "},"|":{"ha":475,"x_min":41,"x_max":420,"o":"m 278 1883 l 341 1883 q 420 1851 420 1879 q 246 -586 420 1521 l 215 -602 l 73 -602 q 41 -570 41 -602 l 41 -538 q 199 1868 41 -221 l 278 1883 z "},"}":{"ha":1409,"x_min":41,"x_max":1354,"o":"m 183 1883 l 310 1883 q 817 1456 396 1883 q 1307 1029 840 1456 q 1339 918 1339 965 q 1354 -269 1354 43 q 1022 -412 1354 -360 q 199 -633 336 -633 l 73 -633 q 41 -602 41 -633 l 41 -491 q 215 -380 41 -380 l 1117 -111 l 1101 -32 l 1101 443 q 1022 902 1101 902 q 151 1693 342 1487 l 151 1851 q 183 1883 157 1883 z "},"~":{"ha":2437,"x_min":41,"x_max":2383,"o":"m 2256 1424 l 2351 1424 q 2383 1393 2383 1419 l 2383 1266 q 1797 412 2383 1193 q 1354 -206 1426 -154 l 1212 -206 q 864 649 1158 -206 q 737 965 848 649 l 721 965 q 246 237 259 237 l 73 237 q 41 269 41 237 l 41 380 q 673 1345 41 440 l 864 1345 q 1322 190 1282 215 q 2193 1409 1948 1085 q 2256 1424 2221 1424 z "},"¢":{"ha":1773,"x_min":41,"x_max":1718,"o":"m 927 1804 l 1069 1804 q 1101 1773 1101 1799 l 1101 1756 q 1069 1297 1101 1607 q 1259 1456 1079 1297 l 1402 1456 q 1449 1409 1425 1456 l 1449 1314 q 1164 1029 1449 1230 q 1022 823 1022 925 q 959 285 1006 768 q 1718 111 1718 155 l 1718 -32 q 1592 -79 1708 -79 l 927 47 l 927 32 q 832 -522 900 -522 l 705 -522 q 658 -475 683 -522 l 658 -459 q 705 95 658 -243 q 41 253 41 212 l 41 412 q 817 1107 817 1077 q 927 1804 861 1804 m 436 395 l 721 332 l 769 665 l 753 665 q 436 395 555 515 z "},"£":{"ha":2247,"x_min":41,"x_max":2193,"o":"m 1149 1868 q 1829 1377 1219 1868 q 1924 1250 1924 1337 l 1924 1139 q 1892 1107 1924 1107 l 1718 1107 q 1164 1551 1695 1147 q 832 775 911 984 l 848 775 q 1180 791 1054 791 l 1512 791 q 1734 807 1600 791 q 1876 760 1876 788 l 1876 617 q 1813 570 1876 593 q 737 554 1109 554 q 341 -349 642 374 l 357 -349 l 2129 -254 q 2193 -301 2193 -277 l 2193 -427 q 1529 -507 2193 -507 q 73 -586 608 -586 q 41 -554 41 -586 l 41 -412 q 436 538 41 -380 l 88 538 q 56 570 56 538 l 56 728 q 88 760 62 760 q 547 791 547 772 q 1038 1868 1002 1839 l 1149 1868 z "},"¨":{"ha":489,"x_min":41,"x_max":435,"o":"m 50 874 l 98 923 q 115 931 107 931 q 134 922 123 931 l 180 872 q 187 855 187 863 q 179 837 187 846 l 132 786 q 115 774 121 774 q 98 783 106 774 l 47 841 q 41 857 41 849 q 50 874 41 865 m 298 874 l 346 923 q 363 931 355 931 q 381 922 370 931 l 428 872 q 435 855 435 863 q 427 838 435 846 l 380 786 q 363 774 368 774 q 346 783 353 774 l 294 842 q 288 857 288 849 q 298 874 288 865 z "},"±":{"ha":1978,"x_min":41,"x_max":1924,"o":"m 975 1440 l 1133 1440 q 1164 1409 1164 1435 l 1164 1393 q 1117 902 1164 1303 l 1133 902 q 1766 965 1685 965 q 1829 918 1829 941 l 1829 775 q 1069 649 1829 735 q 1006 142 1006 212 l 1022 142 q 1908 158 1586 158 l 1924 158 l 1924 -47 q 56 -127 604 -127 l 41 -95 l 41 63 q 753 127 41 111 l 832 633 q 215 570 427 570 l 168 570 l 168 760 q 864 870 168 801 q 975 1440 932 1440 z "},"´":{"ha":408,"x_min":41,"x_max":353,"o":"m 238 932 q 276 964 262 956 q 303 972 290 972 q 339 959 326 972 q 353 924 353 945 q 343 896 353 909 q 311 869 332 882 l 87 731 l 41 731 l 238 932 z "},"¸":{"ha":372,"x_min":41,"x_max":317,"o":"m 41 -197 q 144 -232 98 -232 q 208 -217 189 -232 q 227 -172 227 -203 q 194 -129 227 -142 q 125 -118 167 -118 q 102 -119 114 -118 l 134 0 l 177 0 l 152 -71 q 194 -67 174 -68 q 285 -95 252 -67 q 317 -172 317 -122 q 278 -253 317 -223 q 169 -283 238 -283 q 41 -262 95 -283 l 41 -197 z "},"ˆ":{"ha":490,"x_min":41,"x_max":435,"o":"m 41 732 l 198 972 l 278 972 l 435 732 l 396 732 l 238 878 l 80 732 l 41 732 z "},"ˇ":{"ha":490,"x_min":41,"x_max":435,"o":"m 41 972 l 80 972 l 238 827 l 396 972 l 435 972 l 278 731 l 198 731 l 41 972 z "},"˘":{"ha":491,"x_min":41,"x_max":437,"o":"m 41 915 l 75 915 q 126 842 87 865 q 239 819 165 819 q 352 842 313 819 q 402 915 391 865 l 437 915 q 373 778 423 825 q 239 732 323 732 q 106 779 157 732 q 41 915 55 825 z "},"˙":{"ha":241,"x_min":41,"x_max":186,"o":"m 50 874 l 97 923 q 106 929 101 927 q 115 931 111 931 q 124 929 119 931 q 132 923 128 927 l 180 871 q 185 865 184 869 q 186 855 186 861 q 184 845 186 849 q 179 837 183 841 l 131 785 q 120 776 123 778 q 115 774 117 774 q 104 776 109 774 q 97 782 100 778 l 46 841 q 42 847 43 844 q 41 857 41 851 q 43 865 41 861 q 50 874 45 869 z "},"˚":{"ha":336,"x_min":41,"x_max":281,"o":"m 92 852 q 112 804 92 824 q 160 785 132 785 q 208 804 189 785 q 228 852 228 824 q 208 900 228 880 q 160 920 188 920 q 112 900 132 920 q 92 852 92 880 m 41 852 q 75 938 41 903 q 160 972 110 972 q 247 938 212 972 q 281 852 281 903 q 247 767 281 802 q 160 732 212 732 q 75 767 110 732 q 41 852 41 802 z "},"˛":{"ha":345,"x_min":41,"x_max":290,"o":"m 224 0 q 150 -81 176 -42 q 123 -157 123 -120 q 141 -208 123 -189 q 191 -227 159 -227 q 238 -217 218 -227 q 271 -184 258 -206 l 290 -195 q 229 -260 266 -237 q 148 -283 192 -283 q 71 -259 100 -283 q 41 -198 41 -235 q 82 -92 41 -146 q 191 0 123 -37 l 224 0 z "},"˜":{"ha":484,"x_min":41,"x_max":430,"o":"m 430 937 q 384 833 416 867 q 298 798 351 798 l 295 798 q 218 814 261 798 q 141 830 174 830 q 100 816 115 830 q 77 768 85 802 l 41 768 q 87 875 54 840 q 174 911 120 911 q 251 895 205 910 q 327 879 294 879 l 330 879 q 369 892 354 879 q 393 937 384 906 l 430 937 z "},"˝":{"ha":494,"x_min":41,"x_max":440,"o":"m 41 732 l 138 917 q 169 960 155 947 q 201 972 184 972 q 233 959 220 972 q 247 927 247 945 q 240 903 247 916 q 219 876 233 890 l 80 732 l 41 732 m 234 732 l 332 917 q 362 960 348 947 q 394 972 377 972 q 427 959 413 972 q 440 927 440 945 q 433 903 440 916 q 412 876 426 890 l 273 732 l 234 732 z "},"‘":{"ha":681,"x_min":41,"x_max":627,"o":"m 73 1041 q 41 1073 41 1046 l 41 1183 q 452 2054 404 2054 l 595 2054 q 627 2022 627 2054 l 627 1896 q 247 1041 627 1847 l 73 1041 z "},"’":{"ha":681,"x_min":41,"x_max":627,"o":"m 595 2054 q 627 2022 627 2049 l 627 1912 q 215 1041 263 1041 l 73 1041 q 41 1073 41 1041 l 41 1199 q 420 2054 41 1248 l 595 2054 z "},"“":{"ha":1501,"x_min":41,"x_max":1447,"o":"m 73 1041 q 41 1073 41 1046 l 41 1183 q 452 2054 404 2054 l 595 2054 q 627 2022 627 2054 l 627 1896 q 247 1041 627 1847 l 73 1041 m 893 1041 q 861 1073 861 1046 l 861 1183 q 1273 2054 1225 2054 l 1415 2054 q 1447 2022 1447 2054 l 1447 1896 q 1067 1041 1447 1847 l 893 1041 z "},"”":{"ha":1501,"x_min":41,"x_max":1447,"o":"m 595 2054 q 627 2022 627 2049 l 627 1912 q 215 1041 263 1041 l 73 1041 q 41 1073 41 1041 l 41 1199 q 420 2054 41 1248 l 595 2054 m 1415 2054 q 1447 2022 1447 2049 l 1447 1912 q 1036 1041 1084 1041 l 893 1041 q 861 1073 861 1041 l 861 1199 q 1241 2054 861 1248 l 1415 2054 z "},"…":{"ha":3974,"x_min":41,"x_max":3920,"o":"m 1017 -68 l 1112 -123 q 1128 -151 1128 -136 q 1124 -168 1128 -159 l 1037 -317 l 168 -146 l 58 -82 q 41 -58 41 -73 q 47 -39 41 -49 l 125 98 q 147 102 128 102 q 1017 -68 264 102 m 2412 -68 l 2508 -123 q 2524 -151 2524 -136 q 2519 -168 2524 -159 l 2433 -317 l 1563 -146 l 1453 -82 q 1436 -58 1436 -73 q 1442 -39 1436 -49 l 1521 98 q 1543 102 1524 102 q 2412 -68 1660 102 m 3808 -68 l 3904 -123 q 3920 -151 3920 -136 q 3915 -168 3920 -159 l 3828 -317 l 2959 -146 l 2849 -82 q 2832 -58 2832 -73 q 2838 -39 2832 -49 l 2917 98 q 2939 102 2920 102 q 3808 -68 3056 102 z "},"€":{"ha":2848,"x_min":83,"x_max":2837,"o":"m 1508 1851 q 1935 1583 1619 1851 l 2616 1060 l 2616 870 l 2426 870 q 1524 1551 1742 1396 l 1097 997 q 1919 902 1919 942 l 1919 760 q 1840 712 1919 724 q 922 775 1681 712 l 685 459 l 701 459 q 1682 475 1453 475 q 1745 427 1745 451 l 1745 300 q 1397 237 1745 237 l 1144 237 q 590 222 962 237 q 1524 -475 1473 -475 q 2679 79 2635 79 l 2837 79 l 2837 -95 q 1650 -696 2837 -136 q 1508 -744 1650 -731 l 1460 -744 q 907 -364 1383 -744 q 241 174 291 84 l 241 222 l 115 222 q 83 253 83 222 l 83 412 q 115 443 88 443 l 273 443 q 590 791 368 443 q 163 870 163 810 l 163 997 q 226 1044 163 1036 q 780 1013 426 1044 q 1444 1851 1363 1808 l 1508 1851 z "},"™":{"ha":2153,"x_min":41,"x_max":2098,"o":"m 785 1503 l 864 1503 q 895 1472 895 1499 l 895 1329 q 578 1234 895 1275 q 500 522 578 522 l 357 522 q 326 570 326 522 q 341 1187 326 720 q 168 1155 279 1155 l 73 1155 q 41 1187 41 1155 l 41 1361 q 785 1503 642 1503 m 1022 1393 l 1212 1393 l 1434 1202 l 1576 1329 l 1702 1329 q 2019 1092 1768 1329 q 2098 965 2098 1051 l 2098 870 q 2066 839 2098 839 l 1908 839 l 1671 1029 l 1529 902 l 1370 902 l 1196 1044 q 1069 665 1133 665 l 990 665 l 911 680 l 911 823 q 1022 1393 911 907 z "}}}
